<?xml version="1.0" encoding="utf-8" standalone="no"?>
<!DOCTYPE svg PUBLIC "-//W3C//DTD SVG 1.1//EN"
  "http://www.w3.org/Graphics/SVG/1.1/DTD/svg11.dtd">
<svg xml:space="preserve" xmlns:xlink="http://www.w3.org/1999/xlink" width="180pt" height="180pt" viewBox="0 0 180 180" xmlns="http://www.w3.org/2000/svg" version="1.1">
 <metadata>
  <rdf:RDF xmlns:dc="http://purl.org/dc/elements/1.1/" xmlns:cc="http://creativecommons.org/ns#" xmlns:rdf="http://www.w3.org/1999/02/22-rdf-syntax-ns#">
   <cc:Work>
    <dc:type rdf:resource="http://purl.org/dc/dcmitype/StillImage"/>
    <dc:format>image/svg+xml</dc:format>
    <dc:creator>
     <cc:Agent>
      <dc:title>Matplotlib v3.10.9, https://matplotlib.org/</dc:title>
     </cc:Agent>
    </dc:creator>
   </cc:Work>
  </rdf:RDF>
 </metadata>
 <defs>
  <style type="text/css">*{stroke-linejoin: round; stroke-linecap: butt}</style>
 </defs>
 <g id="figure_1">
  <g id="patch_1">
   <path d="M 0 180 
L 180 180 
L 180 0 
L 0 0 
z
" style="fill: #ffffff"/>
  </g>
  <g id="axes_1">
   <g id="patch_2">
    <path d="M 40.5 148.5 
L 172.8 148.5 
L 172.8 22.5 
L 40.5 22.5 
z
" style="fill: #ffffff"/>
   </g>
   <g id="matplotlib.axis_1">
    <g id="xtick_1">
     <g id="line2d_1">
      <path d="M 46.513636 148.5 
L 46.513636 22.5 
" clip-path="url(#pcbd7610810)" style="fill: none; stroke: #b0b0b0; stroke-opacity: 0.25; stroke-width: 0.5; stroke-linecap: square"/>
     </g>
     <g id="line2d_2">
      <defs>
       <path id="m0c47c13272" d="M 0 0 
L 0 3.5 
" style="stroke: #000000; stroke-width: 0.8"/>
      </defs>
      <g>
       <use xlink:href="#m0c47c13272" x="46.513636" y="148.5" style="stroke: #000000; stroke-width: 0.8"/>
      </g>
     </g>
     <g id="text_1">
      <text style="font-size: 8px; font-family: 'Arial', 'Helvetica', 'Liberation Sans', 'DejaVu Sans', sans-serif; text-anchor: middle" x="46.513636" y="161.2975" transform="rotate(-0 46.513636 161.2975)">−40</text>
     </g>
    </g>
    <g id="xtick_2">
     <g id="line2d_3">
      <path d="M 76.581818 148.5 
L 76.581818 22.5 
" clip-path="url(#pcbd7610810)" style="fill: none; stroke: #b0b0b0; stroke-opacity: 0.25; stroke-width: 0.5; stroke-linecap: square"/>
     </g>
     <g id="line2d_4">
      <g>
       <use xlink:href="#m0c47c13272" x="76.581818" y="148.5" style="stroke: #000000; stroke-width: 0.8"/>
      </g>
     </g>
     <g id="text_2">
      <text style="font-size: 8px; font-family: 'Arial', 'Helvetica', 'Liberation Sans', 'DejaVu Sans', sans-serif; text-anchor: middle" x="76.581818" y="161.2975" transform="rotate(-0 76.581818 161.2975)">−20</text>
     </g>
    </g>
    <g id="xtick_3">
     <g id="line2d_5">
      <path d="M 106.65 148.5 
L 106.65 22.5 
" clip-path="url(#pcbd7610810)" style="fill: none; stroke: #b0b0b0; stroke-opacity: 0.25; stroke-width: 0.5; stroke-linecap: square"/>
     </g>
     <g id="line2d_6">
      <g>
       <use xlink:href="#m0c47c13272" x="106.65" y="148.5" style="stroke: #000000; stroke-width: 0.8"/>
      </g>
     </g>
     <g id="text_3">
      <text style="font-size: 8px; font-family: 'Arial', 'Helvetica', 'Liberation Sans', 'DejaVu Sans', sans-serif; text-anchor: middle" x="106.65" y="161.2975" transform="rotate(-0 106.65 161.2975)">0</text>
     </g>
    </g>
    <g id="xtick_4">
     <g id="line2d_7">
      <path d="M 136.718182 148.5 
L 136.718182 22.5 
" clip-path="url(#pcbd7610810)" style="fill: none; stroke: #b0b0b0; stroke-opacity: 0.25; stroke-width: 0.5; stroke-linecap: square"/>
     </g>
     <g id="line2d_8">
      <g>
       <use xlink:href="#m0c47c13272" x="136.718182" y="148.5" style="stroke: #000000; stroke-width: 0.8"/>
      </g>
     </g>
     <g id="text_4">
      <text style="font-size: 8px; font-family: 'Arial', 'Helvetica', 'Liberation Sans', 'DejaVu Sans', sans-serif; text-anchor: middle" x="136.718182" y="161.2975" transform="rotate(-0 136.718182 161.2975)">20</text>
     </g>
    </g>
    <g id="xtick_5">
     <g id="line2d_9">
      <path d="M 166.786364 148.5 
L 166.786364 22.5 
" clip-path="url(#pcbd7610810)" style="fill: none; stroke: #b0b0b0; stroke-opacity: 0.25; stroke-width: 0.5; stroke-linecap: square"/>
     </g>
     <g id="line2d_10">
      <g>
       <use xlink:href="#m0c47c13272" x="166.786364" y="148.5" style="stroke: #000000; stroke-width: 0.8"/>
      </g>
     </g>
     <g id="text_5">
      <text style="font-size: 8px; font-family: 'Arial', 'Helvetica', 'Liberation Sans', 'DejaVu Sans', sans-serif; text-anchor: middle" x="166.786364" y="161.2975" transform="rotate(-0 166.786364 161.2975)">40</text>
     </g>
    </g>
    <g id="text_6">
     <text style="font-size: 9px; font-family: 'Arial', 'Helvetica', 'Liberation Sans', 'DejaVu Sans', sans-serif; text-anchor: middle" x="106.65" y="173.479688" transform="rotate(-0 106.65 173.479688)">body-frame disparity (deg)</text>
    </g>
   </g>
   <g id="matplotlib.axis_2">
    <g id="ytick_1">
     <g id="line2d_11">
      <path d="M 40.5 140.1 
L 172.8 140.1 
" clip-path="url(#pcbd7610810)" style="fill: none; stroke: #b0b0b0; stroke-opacity: 0.25; stroke-width: 0.5; stroke-linecap: square"/>
     </g>
     <g id="line2d_12">
      <defs>
       <path id="m89049198c1" d="M 0 0 
L -3.5 0 
" style="stroke: #000000; stroke-width: 0.8"/>
      </defs>
      <g>
       <use xlink:href="#m89049198c1" x="40.5" y="140.1" style="stroke: #000000; stroke-width: 0.8"/>
      </g>
     </g>
     <g id="text_7">
      <text style="font-size: 8px; font-family: 'Arial', 'Helvetica', 'Liberation Sans', 'DejaVu Sans', sans-serif; text-anchor: end" x="33.5" y="142.99875" transform="rotate(-0 33.5 142.99875)">0.0</text>
     </g>
    </g>
    <g id="ytick_2">
     <g id="line2d_13">
      <path d="M 40.5 123.3 
L 172.8 123.3 
" clip-path="url(#pcbd7610810)" style="fill: none; stroke: #b0b0b0; stroke-opacity: 0.25; stroke-width: 0.5; stroke-linecap: square"/>
     </g>
     <g id="line2d_14">
      <g>
       <use xlink:href="#m89049198c1" x="40.5" y="123.3" style="stroke: #000000; stroke-width: 0.8"/>
      </g>
     </g>
     <g id="text_8">
      <text style="font-size: 8px; font-family: 'Arial', 'Helvetica', 'Liberation Sans', 'DejaVu Sans', sans-serif; text-anchor: end" x="33.5" y="126.19875" transform="rotate(-0 33.5 126.19875)">0.2</text>
     </g>
    </g>
    <g id="ytick_3">
     <g id="line2d_15">
      <path d="M 40.5 106.5 
L 172.8 106.5 
" clip-path="url(#pcbd7610810)" style="fill: none; stroke: #b0b0b0; stroke-opacity: 0.25; stroke-width: 0.5; stroke-linecap: square"/>
     </g>
     <g id="line2d_16">
      <g>
       <use xlink:href="#m89049198c1" x="40.5" y="106.5" style="stroke: #000000; stroke-width: 0.8"/>
      </g>
     </g>
     <g id="text_9">
      <text style="font-size: 8px; font-family: 'Arial', 'Helvetica', 'Liberation Sans', 'DejaVu Sans', sans-serif; text-anchor: end" x="33.5" y="109.39875" transform="rotate(-0 33.5 109.39875)">0.4</text>
     </g>
    </g>
    <g id="ytick_4">
     <g id="line2d_17">
      <path d="M 40.5 89.7 
L 172.8 89.7 
" clip-path="url(#pcbd7610810)" style="fill: none; stroke: #b0b0b0; stroke-opacity: 0.25; stroke-width: 0.5; stroke-linecap: square"/>
     </g>
     <g id="line2d_18">
      <g>
       <use xlink:href="#m89049198c1" x="40.5" y="89.7" style="stroke: #000000; stroke-width: 0.8"/>
      </g>
     </g>
     <g id="text_10">
      <text style="font-size: 8px; font-family: 'Arial', 'Helvetica', 'Liberation Sans', 'DejaVu Sans', sans-serif; text-anchor: end" x="33.5" y="92.59875" transform="rotate(-0 33.5 92.59875)">0.6</text>
     </g>
    </g>
    <g id="ytick_5">
     <g id="line2d_19">
      <path d="M 40.5 72.9 
L 172.8 72.9 
" clip-path="url(#pcbd7610810)" style="fill: none; stroke: #b0b0b0; stroke-opacity: 0.25; stroke-width: 0.5; stroke-linecap: square"/>
     </g>
     <g id="line2d_20">
      <g>
       <use xlink:href="#m89049198c1" x="40.5" y="72.9" style="stroke: #000000; stroke-width: 0.8"/>
      </g>
     </g>
     <g id="text_11">
      <text style="font-size: 8px; font-family: 'Arial', 'Helvetica', 'Liberation Sans', 'DejaVu Sans', sans-serif; text-anchor: end" x="33.5" y="75.79875" transform="rotate(-0 33.5 75.79875)">0.8</text>
     </g>
    </g>
    <g id="ytick_6">
     <g id="line2d_21">
      <path d="M 40.5 56.1 
L 172.8 56.1 
" clip-path="url(#pcbd7610810)" style="fill: none; stroke: #b0b0b0; stroke-opacity: 0.25; stroke-width: 0.5; stroke-linecap: square"/>
     </g>
     <g id="line2d_22">
      <g>
       <use xlink:href="#m89049198c1" x="40.5" y="56.1" style="stroke: #000000; stroke-width: 0.8"/>
      </g>
     </g>
     <g id="text_12">
      <text style="font-size: 8px; font-family: 'Arial', 'Helvetica', 'Liberation Sans', 'DejaVu Sans', sans-serif; text-anchor: end" x="33.5" y="58.99875" transform="rotate(-0 33.5 58.99875)">1.0</text>
     </g>
    </g>
    <g id="text_13">
     <text style="font-size: 9px; font-family: 'Arial', 'Helvetica', 'Liberation Sans', 'DejaVu Sans', sans-serif; text-anchor: middle" x="16.5125" y="85.5" transform="rotate(-90 16.5125 85.5)">weight on fused estimate</text>
    </g>
   </g>
   <g id="line2d_23">
    <path d="M 46.513636 140.1 
L 61.547727 140.099961 
L 76.581818 140.050965 
L 84.098864 137.515639 
L 91.615909 110.907555 
L 99.132955 76.475866 
L 103.643182 67.805612 
L 106.65 66.669951 
L 109.656818 68.21935 
L 114.167045 77.028483 
L 121.684091 108.846901 
L 129.201136 137.13487 
L 136.718182 140.043032 
L 151.752273 140.099983 
L 166.786364 140.1 
" clip-path="url(#pcbd7610810)" style="fill: none; stroke-dasharray: 4.44,1.92; stroke-dashoffset: 0; stroke: #111111; stroke-width: 1.2"/>
    <defs>
     <path id="m25e13b8402" d="M 0 1.5 
C 0.397805 1.5 0.77937 1.341951 1.06066 1.06066 
C 1.341951 0.77937 1.5 0.397805 1.5 0 
C 1.5 -0.397805 1.341951 -0.77937 1.06066 -1.06066 
C 0.77937 -1.341951 0.397805 -1.5 0 -1.5 
C -0.397805 -1.5 -0.77937 -1.341951 -1.06066 -1.06066 
C -1.341951 -0.77937 -1.5 -0.397805 -1.5 0 
C -1.5 0.397805 -1.341951 0.77937 -1.06066 1.06066 
C -0.77937 1.341951 -0.397805 1.5 0 1.5 
z
" style="stroke: #111111"/>
    </defs>
    <g clip-path="url(#pcbd7610810)">
     <use xlink:href="#m25e13b8402" x="46.513636" y="140.1" style="fill: #111111; stroke: #111111"/>
     <use xlink:href="#m25e13b8402" x="61.547727" y="140.099961" style="fill: #111111; stroke: #111111"/>
     <use xlink:href="#m25e13b8402" x="76.581818" y="140.050965" style="fill: #111111; stroke: #111111"/>
     <use xlink:href="#m25e13b8402" x="84.098864" y="137.515639" style="fill: #111111; stroke: #111111"/>
     <use xlink:href="#m25e13b8402" x="91.615909" y="110.907555" style="fill: #111111; stroke: #111111"/>
     <use xlink:href="#m25e13b8402" x="99.132955" y="76.475866" style="fill: #111111; stroke: #111111"/>
     <use xlink:href="#m25e13b8402" x="103.643182" y="67.805612" style="fill: #111111; stroke: #111111"/>
     <use xlink:href="#m25e13b8402" x="106.65" y="66.669951" style="fill: #111111; stroke: #111111"/>
     <use xlink:href="#m25e13b8402" x="109.656818" y="68.21935" style="fill: #111111; stroke: #111111"/>
     <use xlink:href="#m25e13b8402" x="114.167045" y="77.028483" style="fill: #111111; stroke: #111111"/>
     <use xlink:href="#m25e13b8402" x="121.684091" y="108.846901" style="fill: #111111; stroke: #111111"/>
     <use xlink:href="#m25e13b8402" x="129.201136" y="137.13487" style="fill: #111111; stroke: #111111"/>
     <use xlink:href="#m25e13b8402" x="136.718182" y="140.043032" style="fill: #111111; stroke: #111111"/>
     <use xlink:href="#m25e13b8402" x="151.752273" y="140.099983" style="fill: #111111; stroke: #111111"/>
     <use xlink:href="#m25e13b8402" x="166.786364" y="140.1" style="fill: #111111; stroke: #111111"/>
    </g>
   </g>
   <g id="line2d_24">
    <path d="M 46.513636 139.789995 
L 61.547727 139.298202 
L 76.581818 140.581766 
L 84.098864 135.211715 
L 91.615909 108.978927 
L 99.132955 86.267171 
L 103.643182 73.553775 
L 106.65 122.807258 
L 109.656818 78.395107 
L 114.167045 86.910976 
L 121.684091 106.175762 
L 129.201136 133.909867 
L 136.718182 141.137369 
L 151.752273 139.282133 
L 166.786364 138.491468 
" clip-path="url(#pcbd7610810)" style="fill: none; stroke: #1f77b4; stroke-width: 1.2; stroke-linecap: square"/>
    <defs>
     <path id="m30c06892a9" d="M 0 1.5 
C 0.397805 1.5 0.77937 1.341951 1.06066 1.06066 
C 1.341951 0.77937 1.5 0.397805 1.5 0 
C 1.5 -0.397805 1.341951 -0.77937 1.06066 -1.06066 
C 0.77937 -1.341951 0.397805 -1.5 0 -1.5 
C -0.397805 -1.5 -0.77937 -1.341951 -1.06066 -1.06066 
C -1.341951 -0.77937 -1.5 -0.397805 -1.5 0 
C -1.5 0.397805 -1.341951 0.77937 -1.06066 1.06066 
C -0.77937 1.341951 -0.397805 1.5 0 1.5 
z
" style="stroke: #1f77b4"/>
    </defs>
    <g clip-path="url(#pcbd7610810)">
     <use xlink:href="#m30c06892a9" x="46.513636" y="139.789995" style="fill: #1f77b4; stroke: #1f77b4"/>
     <use xlink:href="#m30c06892a9" x="61.547727" y="139.298202" style="fill: #1f77b4; stroke: #1f77b4"/>
     <use xlink:href="#m30c06892a9" x="76.581818" y="140.581766" style="fill: #1f77b4; stroke: #1f77b4"/>
     <use xlink:href="#m30c06892a9" x="84.098864" y="135.211715" style="fill: #1f77b4; stroke: #1f77b4"/>
     <use xlink:href="#m30c06892a9" x="91.615909" y="108.978927" style="fill: #1f77b4; stroke: #1f77b4"/>
     <use xlink:href="#m30c06892a9" x="99.132955" y="86.267171" style="fill: #1f77b4; stroke: #1f77b4"/>
     <use xlink:href="#m30c06892a9" x="103.643182" y="73.553775" style="fill: #1f77b4; stroke: #1f77b4"/>
     <use xlink:href="#m30c06892a9" x="106.65" y="122.807258" style="fill: #1f77b4; stroke: #1f77b4"/>
     <use xlink:href="#m30c06892a9" x="109.656818" y="78.395107" style="fill: #1f77b4; stroke: #1f77b4"/>
     <use xlink:href="#m30c06892a9" x="114.167045" y="86.910976" style="fill: #1f77b4; stroke: #1f77b4"/>
     <use xlink:href="#m30c06892a9" x="121.684091" y="106.175762" style="fill: #1f77b4; stroke: #1f77b4"/>
     <use xlink:href="#m30c06892a9" x="129.201136" y="133.909867" style="fill: #1f77b4; stroke: #1f77b4"/>
     <use xlink:href="#m30c06892a9" x="136.718182" y="141.137369" style="fill: #1f77b4; stroke: #1f77b4"/>
     <use xlink:href="#m30c06892a9" x="151.752273" y="139.282133" style="fill: #1f77b4; stroke: #1f77b4"/>
     <use xlink:href="#m30c06892a9" x="166.786364" y="138.491468" style="fill: #1f77b4; stroke: #1f77b4"/>
    </g>
   </g>
   <g id="line2d_25">
    <path d="M 46.513636 139.109612 
L 61.547727 144.149098 
L 76.581818 144.620861 
L 84.098864 136.854025 
L 91.615909 110.422779 
L 99.132955 81.43321 
L 103.643182 102.257447 
L 109.656818 91.418954 
L 114.167045 85.699333 
L 121.684091 108.252725 
L 129.201136 132.250568 
L 136.718182 142.192981 
L 151.752273 139.091084 
L 166.786364 138.212562 
" clip-path="url(#pcbd7610810)" style="fill: none; stroke: #2ca02c; stroke-width: 1.2; stroke-linecap: square"/>
    <defs>
     <path id="mcc1bfb7507" d="M -1.5 1.5 
L 1.5 1.5 
L 1.5 -1.5 
L -1.5 -1.5 
z
" style="stroke: #2ca02c; stroke-linejoin: miter"/>
    </defs>
    <g clip-path="url(#pcbd7610810)">
     <use xlink:href="#mcc1bfb7507" x="46.513636" y="139.109612" style="fill: #2ca02c; stroke: #2ca02c; stroke-linejoin: miter"/>
     <use xlink:href="#mcc1bfb7507" x="61.547727" y="144.149098" style="fill: #2ca02c; stroke: #2ca02c; stroke-linejoin: miter"/>
     <use xlink:href="#mcc1bfb7507" x="76.581818" y="144.620861" style="fill: #2ca02c; stroke: #2ca02c; stroke-linejoin: miter"/>
     <use xlink:href="#mcc1bfb7507" x="84.098864" y="136.854025" style="fill: #2ca02c; stroke: #2ca02c; stroke-linejoin: miter"/>
     <use xlink:href="#mcc1bfb7507" x="91.615909" y="110.422779" style="fill: #2ca02c; stroke: #2ca02c; stroke-linejoin: miter"/>
     <use xlink:href="#mcc1bfb7507" x="99.132955" y="81.43321" style="fill: #2ca02c; stroke: #2ca02c; stroke-linejoin: miter"/>
     <use xlink:href="#mcc1bfb7507" x="103.643182" y="102.257447" style="fill: #2ca02c; stroke: #2ca02c; stroke-linejoin: miter"/>
     <use xlink:href="#mcc1bfb7507" x="109.656818" y="91.418954" style="fill: #2ca02c; stroke: #2ca02c; stroke-linejoin: miter"/>
     <use xlink:href="#mcc1bfb7507" x="114.167045" y="85.699333" style="fill: #2ca02c; stroke: #2ca02c; stroke-linejoin: miter"/>
     <use xlink:href="#mcc1bfb7507" x="121.684091" y="108.252725" style="fill: #2ca02c; stroke: #2ca02c; stroke-linejoin: miter"/>
     <use xlink:href="#mcc1bfb7507" x="129.201136" y="132.250568" style="fill: #2ca02c; stroke: #2ca02c; stroke-linejoin: miter"/>
     <use xlink:href="#mcc1bfb7507" x="136.718182" y="142.192981" style="fill: #2ca02c; stroke: #2ca02c; stroke-linejoin: miter"/>
     <use xlink:href="#mcc1bfb7507" x="151.752273" y="139.091084" style="fill: #2ca02c; stroke: #2ca02c; stroke-linejoin: miter"/>
     <use xlink:href="#mcc1bfb7507" x="166.786364" y="138.212562" style="fill: #2ca02c; stroke: #2ca02c; stroke-linejoin: miter"/>
    </g>
   </g>
   <g id="patch_3">
    <path d="M 40.5 148.5 
L 40.5 22.5 
" style="fill: none; stroke: #000000; stroke-width: 0.8; stroke-linejoin: miter; stroke-linecap: square"/>
   </g>
   <g id="patch_4">
    <path d="M 40.5 148.5 
L 172.8 148.5 
" style="fill: none; stroke: #000000; stroke-width: 0.8; stroke-linejoin: miter; stroke-linecap: square"/>
   </g>
   <g id="text_14">
    <text style="font-size: 9px; font-family: 'Arial', 'Helvetica', 'Liberation Sans', 'DejaVu Sans', sans-serif; text-anchor: middle" x="106.65" y="16.5" transform="rotate(-0 106.65 16.5)">fusion-segregation transition</text>
   </g>
   <g id="legend_1">
    <g id="line2d_26">
     <path d="M 67.62 31.8975 
L 74.02 31.8975 
L 80.42 31.8975 
" style="fill: none; stroke-dasharray: 4.44,1.92; stroke-dashoffset: 0; stroke: #111111; stroke-width: 1.2"/>
     <g>
      <use xlink:href="#m25e13b8402" x="74.02" y="31.8975" style="fill: #111111; stroke: #111111"/>
     </g>
    </g>
    <g id="text_15">
     <text style="font-size: 8px; font-family: 'Arial', 'Helvetica', 'Liberation Sans', 'DejaVu Sans', sans-serif; text-anchor: start" x="86.82" y="34.6975" transform="rotate(-0 86.82 34.6975)">analytical p(C=1)</text>
    </g>
    <g id="line2d_27">
     <path d="M 67.62 43.355 
L 74.02 43.355 
L 80.42 43.355 
" style="fill: none; stroke: #1f77b4; stroke-width: 1.2; stroke-linecap: square"/>
     <g>
      <use xlink:href="#m30c06892a9" x="74.02" y="43.355" style="fill: #1f77b4; stroke: #1f77b4"/>
     </g>
    </g>
    <g id="text_16">
     <text style="font-size: 8px; font-family: 'Arial', 'Helvetica', 'Liberation Sans', 'DejaVu Sans', sans-serif; text-anchor: start" x="86.82" y="46.155" transform="rotate(-0 86.82 46.155)">implied, from mu_vis</text>
    </g>
    <g id="line2d_28">
     <path d="M 67.62 54.8125 
L 74.02 54.8125 
L 80.42 54.8125 
" style="fill: none; stroke: #2ca02c; stroke-width: 1.2; stroke-linecap: square"/>
     <g>
      <use xlink:href="#mcc1bfb7507" x="74.02" y="54.8125" style="fill: #2ca02c; stroke: #2ca02c; stroke-linejoin: miter"/>
     </g>
    </g>
    <g id="text_17">
     <text style="font-size: 8px; font-family: 'Arial', 'Helvetica', 'Liberation Sans', 'DejaVu Sans', sans-serif; text-anchor: start" x="86.82" y="57.6125" transform="rotate(-0 86.82 57.6125)">implied, from mu_prop</text>
    </g>
   </g>
  </g>
 </g>
 <defs>
  <clipPath id="pcbd7610810">
   <rect x="40.5" y="22.5" width="132.3" height="126"/>
  </clipPath>
 </defs>
</svg>
